<mxfile host="app.diagrams.net" modified="2021-03-27T10:09:27.567Z" agent="5.0 (Windows NT 6.1) AppleWebKit/537.36 (KHTML, like Gecko) Chrome/87.0.4280.88 Safari/537.36 Edg/87.0.664.57" etag="hU_OiuXCj-enH5BZPM9m" version="14.5.3" type="github">
  <diagram id="cBpA43rtmqlbk7iPYSnH" name="Page-1">
    <mxGraphModel dx="1718" dy="482" grid="1" gridSize="10" guides="1" tooltips="1" connect="1" arrows="1" fold="1" page="1" pageScale="1" pageWidth="850" pageHeight="1100" math="0" shadow="0">
      <root>
        <mxCell id="0" />
        <mxCell id="1" parent="0" />
        <mxCell id="clSFKAzd58rFRTZs6X9b-1" value="" style="edgeStyle=orthogonalEdgeStyle;rounded=0;orthogonalLoop=1;jettySize=auto;html=1;" edge="1" parent="1" source="clSFKAzd58rFRTZs6X9b-2">
          <mxGeometry relative="1" as="geometry">
            <mxPoint x="205" y="160" as="targetPoint" />
          </mxGeometry>
        </mxCell>
        <mxCell id="clSFKAzd58rFRTZs6X9b-2" value="Mulai" style="ellipse;whiteSpace=wrap;html=1;fillColor=#0050ef;strokeColor=#001DBC;fontColor=#ffffff;" vertex="1" parent="1">
          <mxGeometry x="150" y="50" width="110" height="70" as="geometry" />
        </mxCell>
        <mxCell id="clSFKAzd58rFRTZs6X9b-3" value="" style="edgeStyle=orthogonalEdgeStyle;rounded=0;orthogonalLoop=1;jettySize=auto;html=1;" edge="1" parent="1" source="clSFKAzd58rFRTZs6X9b-5" target="clSFKAzd58rFRTZs6X9b-7">
          <mxGeometry relative="1" as="geometry" />
        </mxCell>
        <mxCell id="clSFKAzd58rFRTZs6X9b-4" style="edgeStyle=orthogonalEdgeStyle;rounded=0;orthogonalLoop=1;jettySize=auto;html=1;" edge="1" parent="1" source="clSFKAzd58rFRTZs6X9b-5">
          <mxGeometry relative="1" as="geometry">
            <mxPoint x="210" y="340" as="targetPoint" />
            <Array as="points">
              <mxPoint x="90" y="185" />
              <mxPoint x="90" y="300" />
              <mxPoint x="210" y="300" />
            </Array>
          </mxGeometry>
        </mxCell>
        <mxCell id="clSFKAzd58rFRTZs6X9b-5" value="deklarasi variabel :&lt;br&gt;temp&lt;br&gt;top = -1;" style="shape=hexagon;perimeter=hexagonPerimeter2;whiteSpace=wrap;html=1;fixedSize=1;fillColor=#6a00ff;strokeColor=#3700CC;fontColor=#ffffff;" vertex="1" parent="1">
          <mxGeometry x="127.5" y="160" width="155" height="50" as="geometry" />
        </mxCell>
        <mxCell id="clSFKAzd58rFRTZs6X9b-6" style="edgeStyle=orthogonalEdgeStyle;rounded=0;orthogonalLoop=1;jettySize=auto;html=1;" edge="1" parent="1" source="clSFKAzd58rFRTZs6X9b-7">
          <mxGeometry relative="1" as="geometry">
            <mxPoint x="290" y="190" as="targetPoint" />
            <Array as="points">
              <mxPoint x="310" y="265" />
              <mxPoint x="310" y="190" />
            </Array>
          </mxGeometry>
        </mxCell>
        <mxCell id="clSFKAzd58rFRTZs6X9b-7" value="push kalimat[i] to stack" style="rounded=1;whiteSpace=wrap;html=1;absoluteArcSize=1;arcSize=14;strokeWidth=2;fillColor=#a0522d;strokeColor=#6D1F00;fontColor=#ffffff;" vertex="1" parent="1">
          <mxGeometry x="155" y="240" width="100" height="50" as="geometry" />
        </mxCell>
        <mxCell id="clSFKAzd58rFRTZs6X9b-8" value="" style="edgeStyle=orthogonalEdgeStyle;rounded=0;orthogonalLoop=1;jettySize=auto;html=1;" edge="1" parent="1" source="clSFKAzd58rFRTZs6X9b-10" target="clSFKAzd58rFRTZs6X9b-12">
          <mxGeometry relative="1" as="geometry" />
        </mxCell>
        <mxCell id="clSFKAzd58rFRTZs6X9b-9" style="edgeStyle=orthogonalEdgeStyle;rounded=0;orthogonalLoop=1;jettySize=auto;html=1;" edge="1" parent="1" source="clSFKAzd58rFRTZs6X9b-10">
          <mxGeometry relative="1" as="geometry">
            <mxPoint x="205" y="510" as="targetPoint" />
            <Array as="points">
              <mxPoint x="80" y="365" />
              <mxPoint x="80" y="490" />
              <mxPoint x="205" y="490" />
              <mxPoint x="205" y="510" />
            </Array>
          </mxGeometry>
        </mxCell>
        <mxCell id="clSFKAzd58rFRTZs6X9b-10" value="for(i=0; i&amp;lt;strlen(kalimat); i++)" style="shape=hexagon;perimeter=hexagonPerimeter2;whiteSpace=wrap;html=1;fixedSize=1;fillColor=#6a00ff;strokeColor=#3700CC;fontColor=#ffffff;" vertex="1" parent="1">
          <mxGeometry x="115" y="340" width="180" height="50" as="geometry" />
        </mxCell>
        <mxCell id="clSFKAzd58rFRTZs6X9b-11" style="edgeStyle=orthogonalEdgeStyle;rounded=0;orthogonalLoop=1;jettySize=auto;html=1;" edge="1" parent="1" source="clSFKAzd58rFRTZs6X9b-12">
          <mxGeometry relative="1" as="geometry">
            <mxPoint x="300" y="370" as="targetPoint" />
            <Array as="points">
              <mxPoint x="330" y="450" />
              <mxPoint x="330" y="370" />
              <mxPoint x="305" y="370" />
            </Array>
          </mxGeometry>
        </mxCell>
        <mxCell id="clSFKAzd58rFRTZs6X9b-12" value="pop stack to new_kalimat[i]" style="rounded=1;whiteSpace=wrap;html=1;absoluteArcSize=1;arcSize=14;strokeWidth=2;fillColor=#a0522d;strokeColor=#6D1F00;fontColor=#ffffff;" vertex="1" parent="1">
          <mxGeometry x="155" y="425" width="100" height="50" as="geometry" />
        </mxCell>
        <mxCell id="clSFKAzd58rFRTZs6X9b-13" value="Y" style="edgeStyle=orthogonalEdgeStyle;rounded=0;orthogonalLoop=1;jettySize=auto;html=1;" edge="1" parent="1" source="clSFKAzd58rFRTZs6X9b-15" target="clSFKAzd58rFRTZs6X9b-17">
          <mxGeometry x="0.0351" y="10" relative="1" as="geometry">
            <mxPoint as="offset" />
          </mxGeometry>
        </mxCell>
        <mxCell id="clSFKAzd58rFRTZs6X9b-14" value="N" style="edgeStyle=orthogonalEdgeStyle;rounded=0;orthogonalLoop=1;jettySize=auto;html=1;" edge="1" parent="1" source="clSFKAzd58rFRTZs6X9b-15" target="clSFKAzd58rFRTZs6X9b-19">
          <mxGeometry x="0.122" y="-10" relative="1" as="geometry">
            <mxPoint as="offset" />
          </mxGeometry>
        </mxCell>
        <mxCell id="clSFKAzd58rFRTZs6X9b-15" value="kalimat == new_kalimat" style="strokeWidth=2;html=1;shape=mxgraph.flowchart.decision;whiteSpace=wrap;fillColor=#e51400;strokeColor=#B20000;fontColor=#ffffff;" vertex="1" parent="1">
          <mxGeometry x="150" y="510" width="110" height="100" as="geometry" />
        </mxCell>
        <mxCell id="clSFKAzd58rFRTZs6X9b-16" style="edgeStyle=orthogonalEdgeStyle;rounded=0;orthogonalLoop=1;jettySize=auto;html=1;" edge="1" parent="1" source="clSFKAzd58rFRTZs6X9b-17">
          <mxGeometry relative="1" as="geometry">
            <mxPoint x="270" y="690" as="targetPoint" />
            <Array as="points">
              <mxPoint x="391" y="690" />
            </Array>
          </mxGeometry>
        </mxCell>
        <mxCell id="clSFKAzd58rFRTZs6X9b-17" value="(kalimat) adalah palindrom" style="shape=parallelogram;html=1;strokeWidth=2;perimeter=parallelogramPerimeter;whiteSpace=wrap;rounded=1;arcSize=12;size=0.23;fillColor=#60a917;strokeColor=#2D7600;fontColor=#ffffff;" vertex="1" parent="1">
          <mxGeometry x="292.5" y="540" width="197.5" height="40" as="geometry" />
        </mxCell>
        <mxCell id="clSFKAzd58rFRTZs6X9b-18" style="edgeStyle=orthogonalEdgeStyle;rounded=0;orthogonalLoop=1;jettySize=auto;html=1;" edge="1" parent="1" source="clSFKAzd58rFRTZs6X9b-19">
          <mxGeometry relative="1" as="geometry">
            <mxPoint x="140" y="690" as="targetPoint" />
            <Array as="points">
              <mxPoint x="20" y="690" />
            </Array>
          </mxGeometry>
        </mxCell>
        <mxCell id="clSFKAzd58rFRTZs6X9b-19" value="(kalimat) bukan palindrom" style="shape=parallelogram;html=1;strokeWidth=2;perimeter=parallelogramPerimeter;whiteSpace=wrap;rounded=1;arcSize=12;size=0.23;fillColor=#60a917;strokeColor=#2D7600;fontColor=#ffffff;" vertex="1" parent="1">
          <mxGeometry x="-70" y="540" width="197.5" height="40" as="geometry" />
        </mxCell>
        <mxCell id="clSFKAzd58rFRTZs6X9b-20" value="Selesai" style="ellipse;whiteSpace=wrap;html=1;fillColor=#0050ef;strokeColor=#001DBC;fontColor=#ffffff;" vertex="1" parent="1">
          <mxGeometry x="150" y="660" width="110" height="70" as="geometry" />
        </mxCell>
      </root>
    </mxGraphModel>
  </diagram>
</mxfile>
